<svg xmlns="http://www.w3.org/2000/svg" xmlns:xlink="http://www.w3.org/1999/xlink" viewBox="0 0 1403.001 538.133">
  <defs>
    <style>
      .cls-1 {
        fill: none;
      }

      .cls-2 {
        opacity: 0.08;
      }

      .cls-3 {
        clip-path: url(#clip-path);
      }

      .cls-4 {
        fill: #08979c;
      }

      .cls-5 {
        clip-path: url(#clip-path-2);
      }

      .cls-6 {
        clip-path: url(#clip-path-3);
      }

      .cls-7 {
        clip-path: url(#clip-path-4);
      }

      .cls-8 {
        clip-path: url(#clip-path-5);
      }

      .cls-9 {
        clip-path: url(#clip-path-6);
      }
    </style>
    <clipPath id="clip-path">
      <rect class="cls-1" width="1260.364" height="527.178"/>
    </clipPath>
    <clipPath id="clip-path-2">
      <rect class="cls-1" width="1024.83" height="465.783"/>
    </clipPath>
    <clipPath id="clip-path-3">
      <rect class="cls-1" width="1199.638" height="495.265"/>
    </clipPath>
    <clipPath id="clip-path-4">
      <rect class="cls-1" width="633.28" height="262.668"/>
    </clipPath>
    <clipPath id="clip-path-5">
      <rect class="cls-1" width="1083.144" height="382.286"/>
    </clipPath>
    <clipPath id="clip-path-6">
      <rect class="cls-1" width="1202.117" height="428.127"/>
    </clipPath>
  </defs>
  <g id="Group_539" data-name="Group 539" class="cls-2" transform="translate(18534.818 14066.777)">
    <g id="_048-launch" data-name="048-launch" class="cls-3" transform="translate(-18534.818 -14066.777)">
      <g id="_048-launch-2" data-name="048-launch">
        <g id="Group_362" data-name="Group 362">
          <path id="Path_67" data-name="Path 67" class="cls-4" d="M258.4,116.393a3.662,3.662,0,1,0-5.179,0A3.666,3.666,0,0,0,258.4,116.393Zm-4.143-4.143a2.2,2.2,0,1,1,0,3.107A2.2,2.2,0,0,1,254.257,112.25Zm0,0" transform="translate(-239.838 -104.763)"/>
          <path id="Path_68" data-name="Path 68" class="cls-4" d="M.033,24.048a.732.732,0,0,0,.917.919c.636-.2,6.257-1.983,7.771-3.5A5.179,5.179,0,0,0,9.7,20.116a.72.72,0,0,0,.376-.078c.556-.284,1.148-.578,1.774-.892.291,3.791.268,3.175.269,3.6a.733.733,0,0,0,1.062.653,7.768,7.768,0,0,0,3.413-2.979,7.6,7.6,0,0,0,1.128-4v-.5a19.722,19.722,0,0,0,2.97-2.287c3.639-3.513,4.461-7.838,4.285-12.9a.733.733,0,0,0-.707-.707c-5.061-.176-9.387.645-12.9,4.285A19.211,19.211,0,0,0,9.125,7.179H8.516a7.629,7.629,0,0,0-6.8,4.226l-.176.35a.732.732,0,0,0,.652,1.062c.416,0-.225-.028,3.667.32-.307.614-.613,1.227-.9,1.787a.731.731,0,0,0-.077.4,5.179,5.179,0,0,0-1.342.973C2.029,17.805.233,23.414.033,24.048Zm9.853-5.556L6.507,15.114c.215-.426.432-.862.691-1.38L11.267,17.8c-.533.267-.949.474-1.38.691Zm3.624,3.052-.247-3.11c.984-.5,2-1.041,2.986-1.614a6.091,6.091,0,0,1-2.739,4.724ZM23.531,1.469a22.877,22.877,0,0,1-.291,4.289,4.7,4.7,0,0,1-4-4,22.889,22.889,0,0,1,4.289-.291ZM12.424,5.325a11.571,11.571,0,0,1,5.385-3.242,6.15,6.15,0,0,0,1.732,3.376,6.149,6.149,0,0,0,3.376,1.732,11.57,11.57,0,0,1-3.242,5.385,30.776,30.776,0,0,1-7.032,4.531L7.894,12.357a30.775,30.775,0,0,1,4.53-7.032Zm-9.04,6.111A6.092,6.092,0,0,1,8.22,8.681c-.587,1.007-1.137,2.044-1.651,3.049ZM5.825,16.5l.825.825L5.1,18.881a.732.732,0,1,0,1.036,1.036l1.554-1.554.825.825a3.633,3.633,0,0,1-.825,1.246c-.839.84-3.782,1.981-5.8,2.678.7-2.009,1.848-4.946,2.689-5.786A3.633,3.633,0,0,1,5.825,16.5Zm0,0" transform="translate(0 -0.001)"/>
          <path id="Path_69" data-name="Path 69" class="cls-4" d="M228.25,255.214a.732.732,0,1,0,0,1.036A.733.733,0,0,0,228.25,255.214Zm0,0" transform="translate(-215.916 -242.548)"/>
        </g>
      </g>
      <g id="_048-launch-3" data-name="048-launch" transform="translate(451)">
        <g id="Group_362-2" data-name="Group 362">
          <path id="Path_67-2" data-name="Path 67" class="cls-4" d="M258.4,116.393a3.662,3.662,0,1,0-5.179,0A3.666,3.666,0,0,0,258.4,116.393Zm-4.143-4.143a2.2,2.2,0,1,1,0,3.107A2.2,2.2,0,0,1,254.257,112.25Zm0,0" transform="translate(-239.838 -104.763)"/>
          <path id="Path_68-2" data-name="Path 68" class="cls-4" d="M.033,24.048a.732.732,0,0,0,.917.919c.636-.2,6.257-1.983,7.771-3.5A5.179,5.179,0,0,0,9.7,20.116a.72.72,0,0,0,.376-.078c.556-.284,1.148-.578,1.774-.892.291,3.791.268,3.175.269,3.6a.733.733,0,0,0,1.062.653,7.768,7.768,0,0,0,3.413-2.979,7.6,7.6,0,0,0,1.128-4v-.5a19.722,19.722,0,0,0,2.97-2.287c3.639-3.513,4.461-7.838,4.285-12.9a.733.733,0,0,0-.707-.707c-5.061-.176-9.387.645-12.9,4.285A19.211,19.211,0,0,0,9.125,7.179H8.516a7.629,7.629,0,0,0-6.8,4.226l-.176.35a.732.732,0,0,0,.652,1.062c.416,0-.225-.028,3.667.32-.307.614-.613,1.227-.9,1.787a.731.731,0,0,0-.077.4,5.179,5.179,0,0,0-1.342.973C2.029,17.805.233,23.414.033,24.048Zm9.853-5.556L6.507,15.114c.215-.426.432-.862.691-1.38L11.267,17.8c-.533.267-.949.474-1.38.691Zm3.624,3.052-.247-3.11c.984-.5,2-1.041,2.986-1.614a6.091,6.091,0,0,1-2.739,4.724ZM23.531,1.469a22.877,22.877,0,0,1-.291,4.289,4.7,4.7,0,0,1-4-4,22.889,22.889,0,0,1,4.289-.291ZM12.424,5.325a11.571,11.571,0,0,1,5.385-3.242,6.15,6.15,0,0,0,1.732,3.376,6.149,6.149,0,0,0,3.376,1.732,11.57,11.57,0,0,1-3.242,5.385,30.776,30.776,0,0,1-7.032,4.531L7.894,12.357a30.775,30.775,0,0,1,4.53-7.032Zm-9.04,6.111A6.092,6.092,0,0,1,8.22,8.681c-.587,1.007-1.137,2.044-1.651,3.049ZM5.825,16.5l.825.825L5.1,18.881a.732.732,0,1,0,1.036,1.036l1.554-1.554.825.825a3.633,3.633,0,0,1-.825,1.246c-.839.84-3.782,1.981-5.8,2.678.7-2.009,1.848-4.946,2.689-5.786A3.633,3.633,0,0,1,5.825,16.5Zm0,0" transform="translate(0 -0.001)"/>
          <path id="Path_69-2" data-name="Path 69" class="cls-4" d="M228.25,255.214a.732.732,0,1,0,0,1.036A.733.733,0,0,0,228.25,255.214Zm0,0" transform="translate(-215.916 -242.548)"/>
        </g>
      </g>
      <g id="_048-launch-4" data-name="048-launch" transform="translate(902)">
        <g id="Group_362-3" data-name="Group 362">
          <path id="Path_67-3" data-name="Path 67" class="cls-4" d="M258.4,116.393a3.662,3.662,0,1,0-5.179,0A3.666,3.666,0,0,0,258.4,116.393Zm-4.143-4.143a2.2,2.2,0,1,1,0,3.107A2.2,2.2,0,0,1,254.257,112.25Zm0,0" transform="translate(-239.838 -104.763)"/>
          <path id="Path_68-3" data-name="Path 68" class="cls-4" d="M.033,24.048a.732.732,0,0,0,.917.919c.636-.2,6.257-1.983,7.771-3.5A5.179,5.179,0,0,0,9.7,20.116a.72.72,0,0,0,.376-.078c.556-.284,1.148-.578,1.774-.892.291,3.791.268,3.175.269,3.6a.733.733,0,0,0,1.062.653,7.768,7.768,0,0,0,3.413-2.979,7.6,7.6,0,0,0,1.128-4v-.5a19.722,19.722,0,0,0,2.97-2.287c3.639-3.513,4.461-7.838,4.285-12.9a.733.733,0,0,0-.707-.707c-5.061-.176-9.387.645-12.9,4.285A19.211,19.211,0,0,0,9.125,7.179H8.516a7.629,7.629,0,0,0-6.8,4.226l-.176.35a.732.732,0,0,0,.652,1.062c.416,0-.225-.028,3.667.32-.307.614-.613,1.227-.9,1.787a.731.731,0,0,0-.077.4,5.179,5.179,0,0,0-1.342.973C2.029,17.805.233,23.414.033,24.048Zm9.853-5.556L6.507,15.114c.215-.426.432-.862.691-1.38L11.267,17.8c-.533.267-.949.474-1.38.691Zm3.624,3.052-.247-3.11c.984-.5,2-1.041,2.986-1.614a6.091,6.091,0,0,1-2.739,4.724ZM23.531,1.469a22.877,22.877,0,0,1-.291,4.289,4.7,4.7,0,0,1-4-4,22.889,22.889,0,0,1,4.289-.291ZM12.424,5.325a11.571,11.571,0,0,1,5.385-3.242,6.15,6.15,0,0,0,1.732,3.376,6.149,6.149,0,0,0,3.376,1.732,11.57,11.57,0,0,1-3.242,5.385,30.776,30.776,0,0,1-7.032,4.531L7.894,12.357a30.775,30.775,0,0,1,4.53-7.032Zm-9.04,6.111A6.092,6.092,0,0,1,8.22,8.681c-.587,1.007-1.137,2.044-1.651,3.049ZM5.825,16.5l.825.825L5.1,18.881a.732.732,0,1,0,1.036,1.036l1.554-1.554.825.825a3.633,3.633,0,0,1-.825,1.246c-.839.84-3.782,1.981-5.8,2.678.7-2.009,1.848-4.946,2.689-5.786A3.633,3.633,0,0,1,5.825,16.5Zm0,0" transform="translate(0 -0.001)"/>
          <path id="Path_69-3" data-name="Path 69" class="cls-4" d="M228.25,255.214a.732.732,0,1,0,0,1.036A.733.733,0,0,0,228.25,255.214Zm0,0" transform="translate(-215.916 -242.548)"/>
        </g>
      </g>
      <g id="_048-launch-5" data-name="048-launch" transform="translate(0 270)">
        <g id="Group_362-4" data-name="Group 362">
          <path id="Path_67-4" data-name="Path 67" class="cls-4" d="M258.4,116.393a3.662,3.662,0,1,0-5.179,0A3.666,3.666,0,0,0,258.4,116.393Zm-4.143-4.143a2.2,2.2,0,1,1,0,3.107A2.2,2.2,0,0,1,254.257,112.25Zm0,0" transform="translate(-239.838 -104.763)"/>
          <path id="Path_68-4" data-name="Path 68" class="cls-4" d="M.033,24.048a.732.732,0,0,0,.917.919c.636-.2,6.257-1.983,7.771-3.5A5.179,5.179,0,0,0,9.7,20.116a.72.72,0,0,0,.376-.078c.556-.284,1.148-.578,1.774-.892.291,3.791.268,3.175.269,3.6a.733.733,0,0,0,1.062.653,7.768,7.768,0,0,0,3.413-2.979,7.6,7.6,0,0,0,1.128-4v-.5a19.722,19.722,0,0,0,2.97-2.287c3.639-3.513,4.461-7.838,4.285-12.9a.733.733,0,0,0-.707-.707c-5.061-.176-9.387.645-12.9,4.285A19.211,19.211,0,0,0,9.125,7.179H8.516a7.629,7.629,0,0,0-6.8,4.226l-.176.35a.732.732,0,0,0,.652,1.062c.416,0-.225-.028,3.667.32-.307.614-.613,1.227-.9,1.787a.731.731,0,0,0-.077.4,5.179,5.179,0,0,0-1.342.973C2.029,17.805.233,23.414.033,24.048Zm9.853-5.556L6.507,15.114c.215-.426.432-.862.691-1.38L11.267,17.8c-.533.267-.949.474-1.38.691Zm3.624,3.052-.247-3.11c.984-.5,2-1.041,2.986-1.614a6.091,6.091,0,0,1-2.739,4.724ZM23.531,1.469a22.877,22.877,0,0,1-.291,4.289,4.7,4.7,0,0,1-4-4,22.889,22.889,0,0,1,4.289-.291ZM12.424,5.325a11.571,11.571,0,0,1,5.385-3.242,6.15,6.15,0,0,0,1.732,3.376,6.149,6.149,0,0,0,3.376,1.732,11.57,11.57,0,0,1-3.242,5.385,30.776,30.776,0,0,1-7.032,4.531L7.894,12.357a30.775,30.775,0,0,1,4.53-7.032Zm-9.04,6.111A6.092,6.092,0,0,1,8.22,8.681c-.587,1.007-1.137,2.044-1.651,3.049ZM5.825,16.5l.825.825L5.1,18.881a.732.732,0,1,0,1.036,1.036l1.554-1.554.825.825a3.633,3.633,0,0,1-.825,1.246c-.839.84-3.782,1.981-5.8,2.678.7-2.009,1.848-4.946,2.689-5.786A3.633,3.633,0,0,1,5.825,16.5Zm0,0" transform="translate(0 -0.001)"/>
          <path id="Path_69-4" data-name="Path 69" class="cls-4" d="M228.25,255.214a.732.732,0,1,0,0,1.036A.733.733,0,0,0,228.25,255.214Zm0,0" transform="translate(-215.916 -242.548)"/>
        </g>
      </g>
      <g id="_048-launch-6" data-name="048-launch" transform="translate(451 270)">
        <g id="Group_362-5" data-name="Group 362">
          <path id="Path_67-5" data-name="Path 67" class="cls-4" d="M258.4,116.393a3.662,3.662,0,1,0-5.179,0A3.666,3.666,0,0,0,258.4,116.393Zm-4.143-4.143a2.2,2.2,0,1,1,0,3.107A2.2,2.2,0,0,1,254.257,112.25Zm0,0" transform="translate(-239.838 -104.763)"/>
          <path id="Path_68-5" data-name="Path 68" class="cls-4" d="M.033,24.048a.732.732,0,0,0,.917.919c.636-.2,6.257-1.983,7.771-3.5A5.179,5.179,0,0,0,9.7,20.116a.72.72,0,0,0,.376-.078c.556-.284,1.148-.578,1.774-.892.291,3.791.268,3.175.269,3.6a.733.733,0,0,0,1.062.653,7.768,7.768,0,0,0,3.413-2.979,7.6,7.6,0,0,0,1.128-4v-.5a19.722,19.722,0,0,0,2.97-2.287c3.639-3.513,4.461-7.838,4.285-12.9a.733.733,0,0,0-.707-.707c-5.061-.176-9.387.645-12.9,4.285A19.211,19.211,0,0,0,9.125,7.179H8.516a7.629,7.629,0,0,0-6.8,4.226l-.176.35a.732.732,0,0,0,.652,1.062c.416,0-.225-.028,3.667.32-.307.614-.613,1.227-.9,1.787a.731.731,0,0,0-.077.4,5.179,5.179,0,0,0-1.342.973C2.029,17.805.233,23.414.033,24.048Zm9.853-5.556L6.507,15.114c.215-.426.432-.862.691-1.38L11.267,17.8c-.533.267-.949.474-1.38.691Zm3.624,3.052-.247-3.11c.984-.5,2-1.041,2.986-1.614a6.091,6.091,0,0,1-2.739,4.724ZM23.531,1.469a22.877,22.877,0,0,1-.291,4.289,4.7,4.7,0,0,1-4-4,22.889,22.889,0,0,1,4.289-.291ZM12.424,5.325a11.571,11.571,0,0,1,5.385-3.242,6.15,6.15,0,0,0,1.732,3.376,6.149,6.149,0,0,0,3.376,1.732,11.57,11.57,0,0,1-3.242,5.385,30.776,30.776,0,0,1-7.032,4.531L7.894,12.357a30.775,30.775,0,0,1,4.53-7.032Zm-9.04,6.111A6.092,6.092,0,0,1,8.22,8.681c-.587,1.007-1.137,2.044-1.651,3.049ZM5.825,16.5l.825.825L5.1,18.881a.732.732,0,1,0,1.036,1.036l1.554-1.554.825.825a3.633,3.633,0,0,1-.825,1.246c-.839.84-3.782,1.981-5.8,2.678.7-2.009,1.848-4.946,2.689-5.786A3.633,3.633,0,0,1,5.825,16.5Zm0,0" transform="translate(0 -0.001)"/>
          <path id="Path_69-5" data-name="Path 69" class="cls-4" d="M228.25,255.214a.732.732,0,1,0,0,1.036A.733.733,0,0,0,228.25,255.214Zm0,0" transform="translate(-215.916 -242.548)"/>
        </g>
      </g>
      <g id="_048-launch-7" data-name="048-launch" transform="translate(902 270)">
        <g id="Group_362-6" data-name="Group 362">
          <path id="Path_67-6" data-name="Path 67" class="cls-4" d="M258.4,116.393a3.662,3.662,0,1,0-5.179,0A3.666,3.666,0,0,0,258.4,116.393Zm-4.143-4.143a2.2,2.2,0,1,1,0,3.107A2.2,2.2,0,0,1,254.257,112.25Zm0,0" transform="translate(-239.838 -104.763)"/>
          <path id="Path_68-6" data-name="Path 68" class="cls-4" d="M.033,24.048a.732.732,0,0,0,.917.919c.636-.2,6.257-1.983,7.771-3.5A5.179,5.179,0,0,0,9.7,20.116a.72.72,0,0,0,.376-.078c.556-.284,1.148-.578,1.774-.892.291,3.791.268,3.175.269,3.6a.733.733,0,0,0,1.062.653,7.768,7.768,0,0,0,3.413-2.979,7.6,7.6,0,0,0,1.128-4v-.5a19.722,19.722,0,0,0,2.97-2.287c3.639-3.513,4.461-7.838,4.285-12.9a.733.733,0,0,0-.707-.707c-5.061-.176-9.387.645-12.9,4.285A19.211,19.211,0,0,0,9.125,7.179H8.516a7.629,7.629,0,0,0-6.8,4.226l-.176.35a.732.732,0,0,0,.652,1.062c.416,0-.225-.028,3.667.32-.307.614-.613,1.227-.9,1.787a.731.731,0,0,0-.077.4,5.179,5.179,0,0,0-1.342.973C2.029,17.805.233,23.414.033,24.048Zm9.853-5.556L6.507,15.114c.215-.426.432-.862.691-1.38L11.267,17.8c-.533.267-.949.474-1.38.691Zm3.624,3.052-.247-3.11c.984-.5,2-1.041,2.986-1.614a6.091,6.091,0,0,1-2.739,4.724ZM23.531,1.469a22.877,22.877,0,0,1-.291,4.289,4.7,4.7,0,0,1-4-4,22.889,22.889,0,0,1,4.289-.291ZM12.424,5.325a11.571,11.571,0,0,1,5.385-3.242,6.15,6.15,0,0,0,1.732,3.376,6.149,6.149,0,0,0,3.376,1.732,11.57,11.57,0,0,1-3.242,5.385,30.776,30.776,0,0,1-7.032,4.531L7.894,12.357a30.775,30.775,0,0,1,4.53-7.032Zm-9.04,6.111A6.092,6.092,0,0,1,8.22,8.681c-.587,1.007-1.137,2.044-1.651,3.049ZM5.825,16.5l.825.825L5.1,18.881a.732.732,0,1,0,1.036,1.036l1.554-1.554.825.825a3.633,3.633,0,0,1-.825,1.246c-.839.84-3.782,1.981-5.8,2.678.7-2.009,1.848-4.946,2.689-5.786A3.633,3.633,0,0,1,5.825,16.5Zm0,0" transform="translate(0 -0.001)"/>
          <path id="Path_69-6" data-name="Path 69" class="cls-4" d="M228.25,255.214a.732.732,0,1,0,0,1.036A.733.733,0,0,0,228.25,255.214Zm0,0" transform="translate(-215.916 -242.548)"/>
        </g>
      </g>
    </g>
    <g id="_040-timer" data-name="040-timer" class="cls-5" transform="translate(-18156.646 -14005.383)">
      <g id="_040-timer-2" data-name="040-timer">
        <g id="Group_361" data-name="Group 361">
          <path id="Path_64" data-name="Path 64" class="cls-4" d="M68.057,122a8.057,8.057,0,1,0,8.057,8.057A8.067,8.067,0,0,0,68.057,122Zm5.859,8.788h.691a6.562,6.562,0,0,1-1.4,3.38l-.487-.487a.732.732,0,0,0-1.036,1.036l.487.487a6.559,6.559,0,0,1-3.38,1.4v-.691a.732.732,0,0,0-1.465,0v.691a6.559,6.559,0,0,1-3.38-1.4l.487-.487a.732.732,0,0,0-1.036-1.036l-.487.487a6.561,6.561,0,0,1-1.4-3.38H62.2a.732.732,0,0,0,0-1.465h-.691a6.56,6.56,0,0,1,1.4-3.38l.487.487a.732.732,0,0,0,1.036-1.036l-.487-.487a6.56,6.56,0,0,1,3.38-1.4v.691a.732.732,0,0,0,1.465,0v-.691a6.56,6.56,0,0,1,3.38,1.4l-.487.487a.732.732,0,0,0,1.036,1.036l.487-.487a6.561,6.561,0,0,1,1.4,3.38h-.691a.732.732,0,1,0,0,1.464Zm0,0" transform="translate(-57.07 -116.043)"/>
          <path id="Path_65" data-name="Path 65" class="cls-4" d="M211.465,215.358v-2.626a.732.732,0,1,0-1.465,0v2.93a.732.732,0,0,0,.215.518l1.465,1.465a.732.732,0,0,0,1.036-1.036Zm0,0" transform="translate(-199.746 -201.648)"/>
          <path id="Path_66" data-name="Path 66" class="cls-4" d="M20.293,5.742a.732.732,0,0,0-1.036-1.036L18.219,5.744a10.886,10.886,0,0,0-5.036-2.5V.732A.732.732,0,0,0,12.451,0H9.521a.732.732,0,0,0-.732.732V3.246a10.881,10.881,0,0,0-4.98,2.449L2.688,4.681a.732.732,0,0,0-.983,1.086l1.06.958a10.986,10.986,0,1,0,19.207,7.287A10.9,10.9,0,0,0,19.255,6.78ZM10.254,1.464h1.465V3.051c-.243-.016-.487-.025-.732-.025s-.49.009-.732.025ZM20.507,14.013a9.521,9.521,0,1,1-9.521-9.521A9.532,9.532,0,0,1,20.507,14.013Zm0,0" transform="translate(0 0)"/>
        </g>
      </g>
      <g id="_040-timer-3" data-name="040-timer" transform="translate(444)">
        <g id="Group_361-2" data-name="Group 361">
          <path id="Path_64-2" data-name="Path 64" class="cls-4" d="M68.057,122a8.057,8.057,0,1,0,8.057,8.057A8.067,8.067,0,0,0,68.057,122Zm5.859,8.788h.691a6.562,6.562,0,0,1-1.4,3.38l-.487-.487a.732.732,0,0,0-1.036,1.036l.487.487a6.559,6.559,0,0,1-3.38,1.4v-.691a.732.732,0,0,0-1.465,0v.691a6.559,6.559,0,0,1-3.38-1.4l.487-.487a.732.732,0,0,0-1.036-1.036l-.487.487a6.561,6.561,0,0,1-1.4-3.38H62.2a.732.732,0,0,0,0-1.465h-.691a6.56,6.56,0,0,1,1.4-3.38l.487.487a.732.732,0,0,0,1.036-1.036l-.487-.487a6.56,6.56,0,0,1,3.38-1.4v.691a.732.732,0,0,0,1.465,0v-.691a6.56,6.56,0,0,1,3.38,1.4l-.487.487a.732.732,0,0,0,1.036,1.036l.487-.487a6.561,6.561,0,0,1,1.4,3.38h-.691a.732.732,0,1,0,0,1.464Zm0,0" transform="translate(-57.07 -116.043)"/>
          <path id="Path_65-2" data-name="Path 65" class="cls-4" d="M211.465,215.358v-2.626a.732.732,0,1,0-1.465,0v2.93a.732.732,0,0,0,.215.518l1.465,1.465a.732.732,0,0,0,1.036-1.036Zm0,0" transform="translate(-199.746 -201.648)"/>
          <path id="Path_66-2" data-name="Path 66" class="cls-4" d="M20.293,5.742a.732.732,0,0,0-1.036-1.036L18.219,5.744a10.886,10.886,0,0,0-5.036-2.5V.732A.732.732,0,0,0,12.451,0H9.521a.732.732,0,0,0-.732.732V3.246a10.881,10.881,0,0,0-4.98,2.449L2.688,4.681a.732.732,0,0,0-.983,1.086l1.06.958a10.986,10.986,0,1,0,19.207,7.287A10.9,10.9,0,0,0,19.255,6.78ZM10.254,1.464h1.465V3.051c-.243-.016-.487-.025-.732-.025s-.49.009-.732.025ZM20.507,14.013a9.521,9.521,0,1,1-9.521-9.521A9.532,9.532,0,0,1,20.507,14.013Zm0,0" transform="translate(0 0)"/>
        </g>
      </g>
      <g id="_040-timer-4" data-name="040-timer" transform="translate(888)">
        <g id="Group_361-3" data-name="Group 361">
          <path id="Path_64-3" data-name="Path 64" class="cls-4" d="M68.057,122a8.057,8.057,0,1,0,8.057,8.057A8.067,8.067,0,0,0,68.057,122Zm5.859,8.788h.691a6.562,6.562,0,0,1-1.4,3.38l-.487-.487a.732.732,0,0,0-1.036,1.036l.487.487a6.559,6.559,0,0,1-3.38,1.4v-.691a.732.732,0,0,0-1.465,0v.691a6.559,6.559,0,0,1-3.38-1.4l.487-.487a.732.732,0,0,0-1.036-1.036l-.487.487a6.561,6.561,0,0,1-1.4-3.38H62.2a.732.732,0,0,0,0-1.465h-.691a6.56,6.56,0,0,1,1.4-3.38l.487.487a.732.732,0,0,0,1.036-1.036l-.487-.487a6.56,6.56,0,0,1,3.38-1.4v.691a.732.732,0,0,0,1.465,0v-.691a6.56,6.56,0,0,1,3.38,1.4l-.487.487a.732.732,0,0,0,1.036,1.036l.487-.487a6.561,6.561,0,0,1,1.4,3.38h-.691a.732.732,0,1,0,0,1.464Zm0,0" transform="translate(-57.07 -116.043)"/>
          <path id="Path_65-3" data-name="Path 65" class="cls-4" d="M211.465,215.358v-2.626a.732.732,0,1,0-1.465,0v2.93a.732.732,0,0,0,.215.518l1.465,1.465a.732.732,0,0,0,1.036-1.036Zm0,0" transform="translate(-199.746 -201.648)"/>
          <path id="Path_66-3" data-name="Path 66" class="cls-4" d="M20.293,5.742a.732.732,0,0,0-1.036-1.036L18.219,5.744a10.886,10.886,0,0,0-5.036-2.5V.732A.732.732,0,0,0,12.451,0H9.521a.732.732,0,0,0-.732.732V3.246a10.881,10.881,0,0,0-4.98,2.449L2.688,4.681a.732.732,0,0,0-.983,1.086l1.06.958a10.986,10.986,0,1,0,19.207,7.287A10.9,10.9,0,0,0,19.255,6.78ZM10.254,1.464h1.465V3.051c-.243-.016-.487-.025-.732-.025s-.49.009-.732.025ZM20.507,14.013a9.521,9.521,0,1,1-9.521-9.521A9.532,9.532,0,0,1,20.507,14.013Zm0,0" transform="translate(0 0)"/>
        </g>
      </g>
      <g id="_040-timer-5" data-name="040-timer" transform="translate(0 270)">
        <g id="Group_361-4" data-name="Group 361">
          <path id="Path_64-4" data-name="Path 64" class="cls-4" d="M68.057,122a8.057,8.057,0,1,0,8.057,8.057A8.067,8.067,0,0,0,68.057,122Zm5.859,8.788h.691a6.562,6.562,0,0,1-1.4,3.38l-.487-.487a.732.732,0,0,0-1.036,1.036l.487.487a6.559,6.559,0,0,1-3.38,1.4v-.691a.732.732,0,0,0-1.465,0v.691a6.559,6.559,0,0,1-3.38-1.4l.487-.487a.732.732,0,0,0-1.036-1.036l-.487.487a6.561,6.561,0,0,1-1.4-3.38H62.2a.732.732,0,0,0,0-1.465h-.691a6.56,6.56,0,0,1,1.4-3.38l.487.487a.732.732,0,0,0,1.036-1.036l-.487-.487a6.56,6.56,0,0,1,3.38-1.4v.691a.732.732,0,0,0,1.465,0v-.691a6.56,6.56,0,0,1,3.38,1.4l-.487.487a.732.732,0,0,0,1.036,1.036l.487-.487a6.561,6.561,0,0,1,1.4,3.38h-.691a.732.732,0,1,0,0,1.464Zm0,0" transform="translate(-57.07 -116.043)"/>
          <path id="Path_65-4" data-name="Path 65" class="cls-4" d="M211.465,215.358v-2.626a.732.732,0,1,0-1.465,0v2.93a.732.732,0,0,0,.215.518l1.465,1.465a.732.732,0,0,0,1.036-1.036Zm0,0" transform="translate(-199.746 -201.648)"/>
          <path id="Path_66-4" data-name="Path 66" class="cls-4" d="M20.293,5.742a.732.732,0,0,0-1.036-1.036L18.219,5.744a10.886,10.886,0,0,0-5.036-2.5V.732A.732.732,0,0,0,12.451,0H9.521a.732.732,0,0,0-.732.732V3.246a10.881,10.881,0,0,0-4.98,2.449L2.688,4.681a.732.732,0,0,0-.983,1.086l1.06.958a10.986,10.986,0,1,0,19.207,7.287A10.9,10.9,0,0,0,19.255,6.78ZM10.254,1.464h1.465V3.051c-.243-.016-.487-.025-.732-.025s-.49.009-.732.025ZM20.507,14.013a9.521,9.521,0,1,1-9.521-9.521A9.532,9.532,0,0,1,20.507,14.013Zm0,0" transform="translate(0 0)"/>
        </g>
      </g>
      <g id="_040-timer-6" data-name="040-timer" transform="translate(444 270)">
        <g id="Group_361-5" data-name="Group 361">
          <path id="Path_64-5" data-name="Path 64" class="cls-4" d="M68.057,122a8.057,8.057,0,1,0,8.057,8.057A8.067,8.067,0,0,0,68.057,122Zm5.859,8.788h.691a6.562,6.562,0,0,1-1.4,3.38l-.487-.487a.732.732,0,0,0-1.036,1.036l.487.487a6.559,6.559,0,0,1-3.38,1.4v-.691a.732.732,0,0,0-1.465,0v.691a6.559,6.559,0,0,1-3.38-1.4l.487-.487a.732.732,0,0,0-1.036-1.036l-.487.487a6.561,6.561,0,0,1-1.4-3.38H62.2a.732.732,0,0,0,0-1.465h-.691a6.56,6.56,0,0,1,1.4-3.38l.487.487a.732.732,0,0,0,1.036-1.036l-.487-.487a6.56,6.56,0,0,1,3.38-1.4v.691a.732.732,0,0,0,1.465,0v-.691a6.56,6.56,0,0,1,3.38,1.4l-.487.487a.732.732,0,0,0,1.036,1.036l.487-.487a6.561,6.561,0,0,1,1.4,3.38h-.691a.732.732,0,1,0,0,1.464Zm0,0" transform="translate(-57.07 -116.043)"/>
          <path id="Path_65-5" data-name="Path 65" class="cls-4" d="M211.465,215.358v-2.626a.732.732,0,1,0-1.465,0v2.93a.732.732,0,0,0,.215.518l1.465,1.465a.732.732,0,0,0,1.036-1.036Zm0,0" transform="translate(-199.746 -201.648)"/>
          <path id="Path_66-5" data-name="Path 66" class="cls-4" d="M20.293,5.742a.732.732,0,0,0-1.036-1.036L18.219,5.744a10.886,10.886,0,0,0-5.036-2.5V.732A.732.732,0,0,0,12.451,0H9.521a.732.732,0,0,0-.732.732V3.246a10.881,10.881,0,0,0-4.98,2.449L2.688,4.681a.732.732,0,0,0-.983,1.086l1.06.958a10.986,10.986,0,1,0,19.207,7.287A10.9,10.9,0,0,0,19.255,6.78ZM10.254,1.464h1.465V3.051c-.243-.016-.487-.025-.732-.025s-.49.009-.732.025ZM20.507,14.013a9.521,9.521,0,1,1-9.521-9.521A9.532,9.532,0,0,1,20.507,14.013Zm0,0" transform="translate(0 0)"/>
        </g>
      </g>
      <g id="_040-timer-7" data-name="040-timer" transform="translate(888 270)">
        <g id="Group_361-6" data-name="Group 361">
          <path id="Path_64-6" data-name="Path 64" class="cls-4" d="M68.057,122a8.057,8.057,0,1,0,8.057,8.057A8.067,8.067,0,0,0,68.057,122Zm5.859,8.788h.691a6.562,6.562,0,0,1-1.4,3.38l-.487-.487a.732.732,0,0,0-1.036,1.036l.487.487a6.559,6.559,0,0,1-3.38,1.4v-.691a.732.732,0,0,0-1.465,0v.691a6.559,6.559,0,0,1-3.38-1.4l.487-.487a.732.732,0,0,0-1.036-1.036l-.487.487a6.561,6.561,0,0,1-1.4-3.38H62.2a.732.732,0,0,0,0-1.465h-.691a6.56,6.56,0,0,1,1.4-3.38l.487.487a.732.732,0,0,0,1.036-1.036l-.487-.487a6.56,6.56,0,0,1,3.38-1.4v.691a.732.732,0,0,0,1.465,0v-.691a6.56,6.56,0,0,1,3.38,1.4l-.487.487a.732.732,0,0,0,1.036,1.036l.487-.487a6.561,6.561,0,0,1,1.4,3.38h-.691a.732.732,0,1,0,0,1.464Zm0,0" transform="translate(-57.07 -116.043)"/>
          <path id="Path_65-6" data-name="Path 65" class="cls-4" d="M211.465,215.358v-2.626a.732.732,0,1,0-1.465,0v2.93a.732.732,0,0,0,.215.518l1.465,1.465a.732.732,0,0,0,1.036-1.036Zm0,0" transform="translate(-199.746 -201.648)"/>
          <path id="Path_66-6" data-name="Path 66" class="cls-4" d="M20.293,5.742a.732.732,0,0,0-1.036-1.036L18.219,5.744a10.886,10.886,0,0,0-5.036-2.5V.732A.732.732,0,0,0,12.451,0H9.521a.732.732,0,0,0-.732.732V3.246a10.881,10.881,0,0,0-4.98,2.449L2.688,4.681a.732.732,0,0,0-.983,1.086l1.06.958a10.986,10.986,0,1,0,19.207,7.287A10.9,10.9,0,0,0,19.255,6.78ZM10.254,1.464h1.465V3.051c-.243-.016-.487-.025-.732-.025s-.49.009-.732.025ZM20.507,14.013a9.521,9.521,0,1,1-9.521-9.521A9.532,9.532,0,0,1,20.507,14.013Zm0,0" transform="translate(0 0)"/>
        </g>
      </g>
    </g>
    <g id="_050-analytics" data-name="050-analytics" class="cls-6" transform="translate(-18346.393 -14024.21)">
      <g id="_050-analytics-2" data-name="050-analytics">
        <g id="Group_363" data-name="Group 363">
          <path id="Path_70" data-name="Path 70" class="cls-4" d="M24.268,14.648h-.732V2.2a2.2,2.2,0,0,0-2.2-2.2H3.662A2.2,2.2,0,0,0,1.47,2.2V14.648H.737A.737.737,0,0,0,0,15.381v1.465a3.666,3.666,0,0,0,3.662,3.662H21.338A3.666,3.666,0,0,0,25,16.846V15.381A.732.732,0,0,0,24.268,14.648ZM2.93,2.2a.733.733,0,0,1,.732-.732H21.338a.738.738,0,0,1,.737.732V14.648H16.943a.728.728,0,0,0-.727.732h0v.731H8.789v-.732a.732.732,0,0,0-.732-.732H2.93ZM23.54,16.846a2.2,2.2,0,0,1-2.2,2.2H3.662a2.2,2.2,0,0,1-2.2-2.2v-.732H7.329v.732a.728.728,0,0,0,.727.732h8.887a.732.732,0,0,0,.732-.732v-.732H23.54Zm0,0" transform="translate(0)"/>
          <path id="Path_71" data-name="Path 71" class="cls-4" d="M106.215,69.522a.732.732,0,0,0-.732-.732H92.515L96.642,64.7l2.414,2.414a.732.732,0,0,0,1.032,0l2.978-2.936a2.2,2.2,0,1,0-1.034-1.038l-2.455,2.42-2.415-2.415a.732.732,0,0,0-1.034,0l-4.66,4.622V60.732a.732.732,0,0,0-1.465,0v8.789a.734.734,0,0,0,.732.732h14.746A.732.732,0,0,0,106.215,69.522Zm-2.2-8.057a.732.732,0,1,1-.732.732A.733.733,0,0,1,104.018,61.465Zm0,0" transform="translate(-85.609 -57.07)"/>
        </g>
      </g>
      <g id="_050-analytics-3" data-name="050-analytics" transform="translate(449)">
        <g id="Group_363-2" data-name="Group 363">
          <path id="Path_70-2" data-name="Path 70" class="cls-4" d="M24.268,14.648h-.732V2.2a2.2,2.2,0,0,0-2.2-2.2H3.662A2.2,2.2,0,0,0,1.47,2.2V14.648H.737A.737.737,0,0,0,0,15.381v1.465a3.666,3.666,0,0,0,3.662,3.662H21.338A3.666,3.666,0,0,0,25,16.846V15.381A.732.732,0,0,0,24.268,14.648ZM2.93,2.2a.733.733,0,0,1,.732-.732H21.338a.738.738,0,0,1,.737.732V14.648H16.943a.728.728,0,0,0-.727.732h0v.731H8.789v-.732a.732.732,0,0,0-.732-.732H2.93ZM23.54,16.846a2.2,2.2,0,0,1-2.2,2.2H3.662a2.2,2.2,0,0,1-2.2-2.2v-.732H7.329v.732a.728.728,0,0,0,.727.732h8.887a.732.732,0,0,0,.732-.732v-.732H23.54Zm0,0" transform="translate(0)"/>
          <path id="Path_71-2" data-name="Path 71" class="cls-4" d="M106.215,69.522a.732.732,0,0,0-.732-.732H92.515L96.642,64.7l2.414,2.414a.732.732,0,0,0,1.032,0l2.978-2.936a2.2,2.2,0,1,0-1.034-1.038l-2.455,2.42-2.415-2.415a.732.732,0,0,0-1.034,0l-4.66,4.622V60.732a.732.732,0,0,0-1.465,0v8.789a.734.734,0,0,0,.732.732h14.746A.732.732,0,0,0,106.215,69.522Zm-2.2-8.057a.732.732,0,1,1-.732.732A.733.733,0,0,1,104.018,61.465Zm0,0" transform="translate(-85.609 -57.07)"/>
        </g>
      </g>
      <g id="_050-analytics-4" data-name="050-analytics" transform="translate(898)">
        <g id="Group_363-3" data-name="Group 363">
          <path id="Path_70-3" data-name="Path 70" class="cls-4" d="M24.268,14.648h-.732V2.2a2.2,2.2,0,0,0-2.2-2.2H3.662A2.2,2.2,0,0,0,1.47,2.2V14.648H.737A.737.737,0,0,0,0,15.381v1.465a3.666,3.666,0,0,0,3.662,3.662H21.338A3.666,3.666,0,0,0,25,16.846V15.381A.732.732,0,0,0,24.268,14.648ZM2.93,2.2a.733.733,0,0,1,.732-.732H21.338a.738.738,0,0,1,.737.732V14.648H16.943a.728.728,0,0,0-.727.732h0v.731H8.789v-.732a.732.732,0,0,0-.732-.732H2.93ZM23.54,16.846a2.2,2.2,0,0,1-2.2,2.2H3.662a2.2,2.2,0,0,1-2.2-2.2v-.732H7.329v.732a.728.728,0,0,0,.727.732h8.887a.732.732,0,0,0,.732-.732v-.732H23.54Zm0,0" transform="translate(0)"/>
          <path id="Path_71-3" data-name="Path 71" class="cls-4" d="M106.215,69.522a.732.732,0,0,0-.732-.732H92.515L96.642,64.7l2.414,2.414a.732.732,0,0,0,1.032,0l2.978-2.936a2.2,2.2,0,1,0-1.034-1.038l-2.455,2.42-2.415-2.415a.732.732,0,0,0-1.034,0l-4.66,4.622V60.732a.732.732,0,0,0-1.465,0v8.789a.734.734,0,0,0,.732.732h14.746A.732.732,0,0,0,106.215,69.522Zm-2.2-8.057a.732.732,0,1,1-.732.732A.733.733,0,0,1,104.018,61.465Zm0,0" transform="translate(-85.609 -57.07)"/>
        </g>
      </g>
      <g id="_050-analytics-5" data-name="050-analytics" transform="translate(0 262)">
        <g id="Group_363-4" data-name="Group 363">
          <path id="Path_70-4" data-name="Path 70" class="cls-4" d="M24.268,14.648h-.732V2.2a2.2,2.2,0,0,0-2.2-2.2H3.662A2.2,2.2,0,0,0,1.47,2.2V14.648H.737A.737.737,0,0,0,0,15.381v1.465a3.666,3.666,0,0,0,3.662,3.662H21.338A3.666,3.666,0,0,0,25,16.846V15.381A.732.732,0,0,0,24.268,14.648ZM2.93,2.2a.733.733,0,0,1,.732-.732H21.338a.738.738,0,0,1,.737.732V14.648H16.943a.728.728,0,0,0-.727.732h0v.731H8.789v-.732a.732.732,0,0,0-.732-.732H2.93ZM23.54,16.846a2.2,2.2,0,0,1-2.2,2.2H3.662a2.2,2.2,0,0,1-2.2-2.2v-.732H7.329v.732a.728.728,0,0,0,.727.732h8.887a.732.732,0,0,0,.732-.732v-.732H23.54Zm0,0" transform="translate(0)"/>
          <path id="Path_71-4" data-name="Path 71" class="cls-4" d="M106.215,69.522a.732.732,0,0,0-.732-.732H92.515L96.642,64.7l2.414,2.414a.732.732,0,0,0,1.032,0l2.978-2.936a2.2,2.2,0,1,0-1.034-1.038l-2.455,2.42-2.415-2.415a.732.732,0,0,0-1.034,0l-4.66,4.622V60.732a.732.732,0,0,0-1.465,0v8.789a.734.734,0,0,0,.732.732h14.746A.732.732,0,0,0,106.215,69.522Zm-2.2-8.057a.732.732,0,1,1-.732.732A.733.733,0,0,1,104.018,61.465Zm0,0" transform="translate(-85.609 -57.07)"/>
        </g>
      </g>
      <g id="_050-analytics-6" data-name="050-analytics" transform="translate(449 262)">
        <g id="Group_363-5" data-name="Group 363">
          <path id="Path_70-5" data-name="Path 70" class="cls-4" d="M24.268,14.648h-.732V2.2a2.2,2.2,0,0,0-2.2-2.2H3.662A2.2,2.2,0,0,0,1.47,2.2V14.648H.737A.737.737,0,0,0,0,15.381v1.465a3.666,3.666,0,0,0,3.662,3.662H21.338A3.666,3.666,0,0,0,25,16.846V15.381A.732.732,0,0,0,24.268,14.648ZM2.93,2.2a.733.733,0,0,1,.732-.732H21.338a.738.738,0,0,1,.737.732V14.648H16.943a.728.728,0,0,0-.727.732h0v.731H8.789v-.732a.732.732,0,0,0-.732-.732H2.93ZM23.54,16.846a2.2,2.2,0,0,1-2.2,2.2H3.662a2.2,2.2,0,0,1-2.2-2.2v-.732H7.329v.732a.728.728,0,0,0,.727.732h8.887a.732.732,0,0,0,.732-.732v-.732H23.54Zm0,0" transform="translate(0)"/>
          <path id="Path_71-5" data-name="Path 71" class="cls-4" d="M106.215,69.522a.732.732,0,0,0-.732-.732H92.515L96.642,64.7l2.414,2.414a.732.732,0,0,0,1.032,0l2.978-2.936a2.2,2.2,0,1,0-1.034-1.038l-2.455,2.42-2.415-2.415a.732.732,0,0,0-1.034,0l-4.66,4.622V60.732a.732.732,0,0,0-1.465,0v8.789a.734.734,0,0,0,.732.732h14.746A.732.732,0,0,0,106.215,69.522Zm-2.2-8.057a.732.732,0,1,1-.732.732A.733.733,0,0,1,104.018,61.465Zm0,0" transform="translate(-85.609 -57.07)"/>
        </g>
      </g>
      <g id="_050-analytics-7" data-name="050-analytics" transform="translate(898 262)">
        <g id="Group_363-6" data-name="Group 363">
          <path id="Path_70-6" data-name="Path 70" class="cls-4" d="M24.268,14.648h-.732V2.2a2.2,2.2,0,0,0-2.2-2.2H3.662A2.2,2.2,0,0,0,1.47,2.2V14.648H.737A.737.737,0,0,0,0,15.381v1.465a3.666,3.666,0,0,0,3.662,3.662H21.338A3.666,3.666,0,0,0,25,16.846V15.381A.732.732,0,0,0,24.268,14.648ZM2.93,2.2a.733.733,0,0,1,.732-.732H21.338a.738.738,0,0,1,.737.732V14.648H16.943a.728.728,0,0,0-.727.732h0v.731H8.789v-.732a.732.732,0,0,0-.732-.732H2.93ZM23.54,16.846a2.2,2.2,0,0,1-2.2,2.2H3.662a2.2,2.2,0,0,1-2.2-2.2v-.732H7.329v.732a.728.728,0,0,0,.727.732h8.887a.732.732,0,0,0,.732-.732v-.732H23.54Zm0,0" transform="translate(0)"/>
          <path id="Path_71-6" data-name="Path 71" class="cls-4" d="M106.215,69.522a.732.732,0,0,0-.732-.732H92.515L96.642,64.7l2.414,2.414a.732.732,0,0,0,1.032,0l2.978-2.936a2.2,2.2,0,1,0-1.034-1.038l-2.455,2.42-2.415-2.415a.732.732,0,0,0-1.034,0l-4.66,4.622V60.732a.732.732,0,0,0-1.465,0v8.789a.734.734,0,0,0,.732.732h14.746A.732.732,0,0,0,106.215,69.522Zm-2.2-8.057a.732.732,0,1,1-.732.732A.733.733,0,0,1,104.018,61.465Zm0,0" transform="translate(-85.609 -57.07)"/>
        </g>
      </g>
    </g>
    <g id="Repeat_Grid_4" data-name="Repeat Grid 4" class="cls-7" transform="translate(-18121.121 -13893.569)">
      <g transform="translate(18211 13821.188)">
        <path id="_030-upload" data-name="030-upload" class="cls-4" d="M19.092,5.859h-.3a8.068,8.068,0,0,0-15.682.685A5.861,5.861,0,0,0,5.859,17.578H10.3v5.127a.732.732,0,0,0,.732.732h2.93a.732.732,0,0,0,.732-.732V17.578h4.395a5.86,5.86,0,1,0,0-11.719ZM13.965,16.113a.732.732,0,0,0-.732.732v5.127H11.768V16.846a.732.732,0,0,0-.732-.732H9.57l2.93-3.906,2.93,3.906Zm5.127,0H17.261l-3.3-4.395H15.43a.732.732,0,1,0,0-1.465H9.57a.732.732,0,1,0,0,1.465h1.465l-3.3,4.395H5.859a4.395,4.395,0,0,1,0-8.789.732.732,0,1,0,0-1.465,5.914,5.914,0,0,0-1.089.1,6.6,6.6,0,0,1,12.568.166q-.268.084-.528.194a.732.732,0,1,0,.571,1.349,4.368,4.368,0,0,1,1.71-.345,4.395,4.395,0,1,1,0,8.789Zm0,0" transform="translate(-18211 -13821.188)"/>
      </g>
      <g transform="translate(18661 13821.188)">
        <path id="_030-upload-2" data-name="030-upload" class="cls-4" d="M19.092,5.859h-.3a8.068,8.068,0,0,0-15.682.685A5.861,5.861,0,0,0,5.859,17.578H10.3v5.127a.732.732,0,0,0,.732.732h2.93a.732.732,0,0,0,.732-.732V17.578h4.395a5.86,5.86,0,1,0,0-11.719ZM13.965,16.113a.732.732,0,0,0-.732.732v5.127H11.768V16.846a.732.732,0,0,0-.732-.732H9.57l2.93-3.906,2.93,3.906Zm5.127,0H17.261l-3.3-4.395H15.43a.732.732,0,1,0,0-1.465H9.57a.732.732,0,1,0,0,1.465h1.465l-3.3,4.395H5.859a4.395,4.395,0,0,1,0-8.789.732.732,0,1,0,0-1.465,5.914,5.914,0,0,0-1.089.1,6.6,6.6,0,0,1,12.568.166q-.268.084-.528.194a.732.732,0,1,0,.571,1.349,4.368,4.368,0,0,1,1.71-.345,4.395,4.395,0,1,1,0,8.789Zm0,0" transform="translate(-18211 -13821.188)"/>
      </g>
    </g>
    <g id="_006-server" data-name="006-server" class="cls-8" transform="translate(-18295.584 -13911.243)">
      <g id="_006-server-2" data-name="006-server">
        <g id="Group_364" data-name="Group 364">
          <path id="Path_72" data-name="Path 72" class="cls-4" d="M213.2,181a2.2,2.2,0,1,0,2.2,2.2A2.2,2.2,0,0,0,213.2,181Zm0,2.93a.732.732,0,1,1,.732-.732A.733.733,0,0,1,213.2,183.93Zm0,0" transform="translate(-200.697 -172.162)"/>
          <path id="Path_73" data-name="Path 73" class="cls-4" d="M242.465,301.732a.732.732,0,1,1-.732-.732A.732.732,0,0,1,242.465,301.732Zm0,0" transform="translate(-229.233 -286.303)"/>
          <path id="Path_74" data-name="Path 74" class="cls-4" d="M90.732,2.979a.732.732,0,0,0,.732-.732V.732A.732.732,0,0,0,90,.732V2.246A.732.732,0,0,0,90.732,2.979Zm0,0" transform="translate(-85.606)"/>
          <path id="Path_75" data-name="Path 75" class="cls-4" d="M30,183.2a.732.732,0,1,0,1.465,0v-1.465a.732.732,0,1,0-1.465,0Zm0,0" transform="translate(-28.535 -172.162)"/>
          <path id="Path_76" data-name="Path 76" class="cls-4" d="M90,94.662a.732.732,0,0,0,1.465,0v-2.93a.732.732,0,0,0-1.465,0Zm0,0" transform="translate(-85.606 -86.557)"/>
          <path id="Path_77" data-name="Path 77" class="cls-4" d="M392.732,2.979a.732.732,0,0,0,.732-.732V.732a.732.732,0,0,0-1.465,0V2.246A.732.732,0,0,0,392.732,2.979Zm0,0" transform="translate(-372.859)"/>
          <path id="Path_78" data-name="Path 78" class="cls-4" d="M392,94.662a.732.732,0,0,0,1.465,0v-2.93a.732.732,0,0,0-1.465,0Zm0,0" transform="translate(-372.859 -86.557)"/>
          <path id="Path_79" data-name="Path 79" class="cls-4" d="M30.732,65.395a.732.732,0,0,0,.732-.732v-2.93a.732.732,0,1,0-1.465,0v2.93A.732.732,0,0,0,30.732,65.395Zm0,0" transform="translate(-28.535 -58.021)"/>
          <path id="Path_80" data-name="Path 80" class="cls-4" d="M452,183.2a.732.732,0,0,0,1.465,0v-1.465a.732.732,0,0,0-1.465,0Zm0,0" transform="translate(-429.93 -172.162)"/>
          <path id="Path_81" data-name="Path 81" class="cls-4" d="M452.732,65.395a.732.732,0,0,0,.732-.732v-2.93a.732.732,0,0,0-1.465,0v2.93A.732.732,0,0,0,452.732,65.395Zm0,0" transform="translate(-429.93 -58.021)"/>
          <path id="Path_82" data-name="Path 82" class="cls-4" d="M20.327,71.373a8.1,8.1,0,0,0-2.7-4.134V63.2a2.2,2.2,0,0,0-2.2-2.2H9.57a2.2,2.2,0,0,0-2.2,2.2v4.042a8.1,8.1,0,0,0-2.7,4.134A5.887,5.887,0,0,0,5.859,83.021H19.141a5.887,5.887,0,0,0,1.186-11.648ZM8.838,63.2a.733.733,0,0,1,.732-.732H15.43a.733.733,0,0,1,.732.732v.732H8.838Zm0,2.2h7.324V75.648H8.838Zm10.3,16.162H5.859a4.407,4.407,0,0,1-.506-8.783.732.732,0,0,0,.17-.041c.111-.008.223-.014.336-.014a.732.732,0,0,0,.354-1.373A6.539,6.539,0,0,1,7.373,69.3v6.353H6.641a.732.732,0,1,0,0,1.465H18.408a.732.732,0,1,0,0-1.465h-.781V69.3a6.539,6.539,0,0,1,1.16,2.049.732.732,0,0,0,.354,1.373c.113,0,.225.006.336.014a.732.732,0,0,0,.17.041,4.407,4.407,0,0,1-.506,8.783Zm0,0" transform="translate(0 -58.021)"/>
        </g>
      </g>
      <g id="_006-server-3" data-name="006-server" transform="translate(453)">
        <g id="Group_364-2" data-name="Group 364">
          <path id="Path_72-2" data-name="Path 72" class="cls-4" d="M213.2,181a2.2,2.2,0,1,0,2.2,2.2A2.2,2.2,0,0,0,213.2,181Zm0,2.93a.732.732,0,1,1,.732-.732A.733.733,0,0,1,213.2,183.93Zm0,0" transform="translate(-200.697 -172.162)"/>
          <path id="Path_73-2" data-name="Path 73" class="cls-4" d="M242.465,301.732a.732.732,0,1,1-.732-.732A.732.732,0,0,1,242.465,301.732Zm0,0" transform="translate(-229.233 -286.303)"/>
          <path id="Path_74-2" data-name="Path 74" class="cls-4" d="M90.732,2.979a.732.732,0,0,0,.732-.732V.732A.732.732,0,0,0,90,.732V2.246A.732.732,0,0,0,90.732,2.979Zm0,0" transform="translate(-85.606)"/>
          <path id="Path_75-2" data-name="Path 75" class="cls-4" d="M30,183.2a.732.732,0,1,0,1.465,0v-1.465a.732.732,0,1,0-1.465,0Zm0,0" transform="translate(-28.535 -172.162)"/>
          <path id="Path_76-2" data-name="Path 76" class="cls-4" d="M90,94.662a.732.732,0,0,0,1.465,0v-2.93a.732.732,0,0,0-1.465,0Zm0,0" transform="translate(-85.606 -86.557)"/>
          <path id="Path_77-2" data-name="Path 77" class="cls-4" d="M392.732,2.979a.732.732,0,0,0,.732-.732V.732a.732.732,0,0,0-1.465,0V2.246A.732.732,0,0,0,392.732,2.979Zm0,0" transform="translate(-372.859)"/>
          <path id="Path_78-2" data-name="Path 78" class="cls-4" d="M392,94.662a.732.732,0,0,0,1.465,0v-2.93a.732.732,0,0,0-1.465,0Zm0,0" transform="translate(-372.859 -86.557)"/>
          <path id="Path_79-2" data-name="Path 79" class="cls-4" d="M30.732,65.395a.732.732,0,0,0,.732-.732v-2.93a.732.732,0,1,0-1.465,0v2.93A.732.732,0,0,0,30.732,65.395Zm0,0" transform="translate(-28.535 -58.021)"/>
          <path id="Path_80-2" data-name="Path 80" class="cls-4" d="M452,183.2a.732.732,0,0,0,1.465,0v-1.465a.732.732,0,0,0-1.465,0Zm0,0" transform="translate(-429.93 -172.162)"/>
          <path id="Path_81-2" data-name="Path 81" class="cls-4" d="M452.732,65.395a.732.732,0,0,0,.732-.732v-2.93a.732.732,0,0,0-1.465,0v2.93A.732.732,0,0,0,452.732,65.395Zm0,0" transform="translate(-429.93 -58.021)"/>
          <path id="Path_82-2" data-name="Path 82" class="cls-4" d="M20.327,71.373a8.1,8.1,0,0,0-2.7-4.134V63.2a2.2,2.2,0,0,0-2.2-2.2H9.57a2.2,2.2,0,0,0-2.2,2.2v4.042a8.1,8.1,0,0,0-2.7,4.134A5.887,5.887,0,0,0,5.859,83.021H19.141a5.887,5.887,0,0,0,1.186-11.648ZM8.838,63.2a.733.733,0,0,1,.732-.732H15.43a.733.733,0,0,1,.732.732v.732H8.838Zm0,2.2h7.324V75.648H8.838Zm10.3,16.162H5.859a4.407,4.407,0,0,1-.506-8.783.732.732,0,0,0,.17-.041c.111-.008.223-.014.336-.014a.732.732,0,0,0,.354-1.373A6.539,6.539,0,0,1,7.373,69.3v6.353H6.641a.732.732,0,1,0,0,1.465H18.408a.732.732,0,1,0,0-1.465h-.781V69.3a6.539,6.539,0,0,1,1.16,2.049.732.732,0,0,0,.354,1.373c.113,0,.225.006.336.014a.732.732,0,0,0,.17.041,4.407,4.407,0,0,1-.506,8.783Zm0,0" transform="translate(0 -58.021)"/>
        </g>
      </g>
      <g id="_006-server-4" data-name="006-server" transform="translate(906)">
        <g id="Group_364-3" data-name="Group 364">
          <path id="Path_72-3" data-name="Path 72" class="cls-4" d="M213.2,181a2.2,2.2,0,1,0,2.2,2.2A2.2,2.2,0,0,0,213.2,181Zm0,2.93a.732.732,0,1,1,.732-.732A.733.733,0,0,1,213.2,183.93Zm0,0" transform="translate(-200.697 -172.162)"/>
          <path id="Path_73-3" data-name="Path 73" class="cls-4" d="M242.465,301.732a.732.732,0,1,1-.732-.732A.732.732,0,0,1,242.465,301.732Zm0,0" transform="translate(-229.233 -286.303)"/>
          <path id="Path_74-3" data-name="Path 74" class="cls-4" d="M90.732,2.979a.732.732,0,0,0,.732-.732V.732A.732.732,0,0,0,90,.732V2.246A.732.732,0,0,0,90.732,2.979Zm0,0" transform="translate(-85.606)"/>
          <path id="Path_75-3" data-name="Path 75" class="cls-4" d="M30,183.2a.732.732,0,1,0,1.465,0v-1.465a.732.732,0,1,0-1.465,0Zm0,0" transform="translate(-28.535 -172.162)"/>
          <path id="Path_76-3" data-name="Path 76" class="cls-4" d="M90,94.662a.732.732,0,0,0,1.465,0v-2.93a.732.732,0,0,0-1.465,0Zm0,0" transform="translate(-85.606 -86.557)"/>
          <path id="Path_77-3" data-name="Path 77" class="cls-4" d="M392.732,2.979a.732.732,0,0,0,.732-.732V.732a.732.732,0,0,0-1.465,0V2.246A.732.732,0,0,0,392.732,2.979Zm0,0" transform="translate(-372.859)"/>
          <path id="Path_78-3" data-name="Path 78" class="cls-4" d="M392,94.662a.732.732,0,0,0,1.465,0v-2.93a.732.732,0,0,0-1.465,0Zm0,0" transform="translate(-372.859 -86.557)"/>
          <path id="Path_79-3" data-name="Path 79" class="cls-4" d="M30.732,65.395a.732.732,0,0,0,.732-.732v-2.93a.732.732,0,1,0-1.465,0v2.93A.732.732,0,0,0,30.732,65.395Zm0,0" transform="translate(-28.535 -58.021)"/>
          <path id="Path_80-3" data-name="Path 80" class="cls-4" d="M452,183.2a.732.732,0,0,0,1.465,0v-1.465a.732.732,0,0,0-1.465,0Zm0,0" transform="translate(-429.93 -172.162)"/>
          <path id="Path_81-3" data-name="Path 81" class="cls-4" d="M452.732,65.395a.732.732,0,0,0,.732-.732v-2.93a.732.732,0,0,0-1.465,0v2.93A.732.732,0,0,0,452.732,65.395Zm0,0" transform="translate(-429.93 -58.021)"/>
          <path id="Path_82-3" data-name="Path 82" class="cls-4" d="M20.327,71.373a8.1,8.1,0,0,0-2.7-4.134V63.2a2.2,2.2,0,0,0-2.2-2.2H9.57a2.2,2.2,0,0,0-2.2,2.2v4.042a8.1,8.1,0,0,0-2.7,4.134A5.887,5.887,0,0,0,5.859,83.021H19.141a5.887,5.887,0,0,0,1.186-11.648ZM8.838,63.2a.733.733,0,0,1,.732-.732H15.43a.733.733,0,0,1,.732.732v.732H8.838Zm0,2.2h7.324V75.648H8.838Zm10.3,16.162H5.859a4.407,4.407,0,0,1-.506-8.783.732.732,0,0,0,.17-.041c.111-.008.223-.014.336-.014a.732.732,0,0,0,.354-1.373A6.539,6.539,0,0,1,7.373,69.3v6.353H6.641a.732.732,0,1,0,0,1.465H18.408a.732.732,0,1,0,0-1.465h-.781V69.3a6.539,6.539,0,0,1,1.16,2.049.732.732,0,0,0,.354,1.373c.113,0,.225.006.336.014a.732.732,0,0,0,.17.041,4.407,4.407,0,0,1-.506,8.783Zm0,0" transform="translate(0 -58.021)"/>
        </g>
      </g>
      <g id="_006-server-5" data-name="006-server" transform="translate(0 270)">
        <g id="Group_364-4" data-name="Group 364">
          <path id="Path_72-4" data-name="Path 72" class="cls-4" d="M213.2,181a2.2,2.2,0,1,0,2.2,2.2A2.2,2.2,0,0,0,213.2,181Zm0,2.93a.732.732,0,1,1,.732-.732A.733.733,0,0,1,213.2,183.93Zm0,0" transform="translate(-200.697 -172.162)"/>
          <path id="Path_73-4" data-name="Path 73" class="cls-4" d="M242.465,301.732a.732.732,0,1,1-.732-.732A.732.732,0,0,1,242.465,301.732Zm0,0" transform="translate(-229.233 -286.303)"/>
          <path id="Path_74-4" data-name="Path 74" class="cls-4" d="M90.732,2.979a.732.732,0,0,0,.732-.732V.732A.732.732,0,0,0,90,.732V2.246A.732.732,0,0,0,90.732,2.979Zm0,0" transform="translate(-85.606)"/>
          <path id="Path_75-4" data-name="Path 75" class="cls-4" d="M30,183.2a.732.732,0,1,0,1.465,0v-1.465a.732.732,0,1,0-1.465,0Zm0,0" transform="translate(-28.535 -172.162)"/>
          <path id="Path_76-4" data-name="Path 76" class="cls-4" d="M90,94.662a.732.732,0,0,0,1.465,0v-2.93a.732.732,0,0,0-1.465,0Zm0,0" transform="translate(-85.606 -86.557)"/>
          <path id="Path_77-4" data-name="Path 77" class="cls-4" d="M392.732,2.979a.732.732,0,0,0,.732-.732V.732a.732.732,0,0,0-1.465,0V2.246A.732.732,0,0,0,392.732,2.979Zm0,0" transform="translate(-372.859)"/>
          <path id="Path_78-4" data-name="Path 78" class="cls-4" d="M392,94.662a.732.732,0,0,0,1.465,0v-2.93a.732.732,0,0,0-1.465,0Zm0,0" transform="translate(-372.859 -86.557)"/>
          <path id="Path_79-4" data-name="Path 79" class="cls-4" d="M30.732,65.395a.732.732,0,0,0,.732-.732v-2.93a.732.732,0,1,0-1.465,0v2.93A.732.732,0,0,0,30.732,65.395Zm0,0" transform="translate(-28.535 -58.021)"/>
          <path id="Path_80-4" data-name="Path 80" class="cls-4" d="M452,183.2a.732.732,0,0,0,1.465,0v-1.465a.732.732,0,0,0-1.465,0Zm0,0" transform="translate(-429.93 -172.162)"/>
          <path id="Path_81-4" data-name="Path 81" class="cls-4" d="M452.732,65.395a.732.732,0,0,0,.732-.732v-2.93a.732.732,0,0,0-1.465,0v2.93A.732.732,0,0,0,452.732,65.395Zm0,0" transform="translate(-429.93 -58.021)"/>
          <path id="Path_82-4" data-name="Path 82" class="cls-4" d="M20.327,71.373a8.1,8.1,0,0,0-2.7-4.134V63.2a2.2,2.2,0,0,0-2.2-2.2H9.57a2.2,2.2,0,0,0-2.2,2.2v4.042a8.1,8.1,0,0,0-2.7,4.134A5.887,5.887,0,0,0,5.859,83.021H19.141a5.887,5.887,0,0,0,1.186-11.648ZM8.838,63.2a.733.733,0,0,1,.732-.732H15.43a.733.733,0,0,1,.732.732v.732H8.838Zm0,2.2h7.324V75.648H8.838Zm10.3,16.162H5.859a4.407,4.407,0,0,1-.506-8.783.732.732,0,0,0,.17-.041c.111-.008.223-.014.336-.014a.732.732,0,0,0,.354-1.373A6.539,6.539,0,0,1,7.373,69.3v6.353H6.641a.732.732,0,1,0,0,1.465H18.408a.732.732,0,1,0,0-1.465h-.781V69.3a6.539,6.539,0,0,1,1.16,2.049.732.732,0,0,0,.354,1.373c.113,0,.225.006.336.014a.732.732,0,0,0,.17.041,4.407,4.407,0,0,1-.506,8.783Zm0,0" transform="translate(0 -58.021)"/>
        </g>
      </g>
      <g id="_006-server-6" data-name="006-server" transform="translate(453 270)">
        <g id="Group_364-5" data-name="Group 364">
          <path id="Path_72-5" data-name="Path 72" class="cls-4" d="M213.2,181a2.2,2.2,0,1,0,2.2,2.2A2.2,2.2,0,0,0,213.2,181Zm0,2.93a.732.732,0,1,1,.732-.732A.733.733,0,0,1,213.2,183.93Zm0,0" transform="translate(-200.697 -172.162)"/>
          <path id="Path_73-5" data-name="Path 73" class="cls-4" d="M242.465,301.732a.732.732,0,1,1-.732-.732A.732.732,0,0,1,242.465,301.732Zm0,0" transform="translate(-229.233 -286.303)"/>
          <path id="Path_74-5" data-name="Path 74" class="cls-4" d="M90.732,2.979a.732.732,0,0,0,.732-.732V.732A.732.732,0,0,0,90,.732V2.246A.732.732,0,0,0,90.732,2.979Zm0,0" transform="translate(-85.606)"/>
          <path id="Path_75-5" data-name="Path 75" class="cls-4" d="M30,183.2a.732.732,0,1,0,1.465,0v-1.465a.732.732,0,1,0-1.465,0Zm0,0" transform="translate(-28.535 -172.162)"/>
          <path id="Path_76-5" data-name="Path 76" class="cls-4" d="M90,94.662a.732.732,0,0,0,1.465,0v-2.93a.732.732,0,0,0-1.465,0Zm0,0" transform="translate(-85.606 -86.557)"/>
          <path id="Path_77-5" data-name="Path 77" class="cls-4" d="M392.732,2.979a.732.732,0,0,0,.732-.732V.732a.732.732,0,0,0-1.465,0V2.246A.732.732,0,0,0,392.732,2.979Zm0,0" transform="translate(-372.859)"/>
          <path id="Path_78-5" data-name="Path 78" class="cls-4" d="M392,94.662a.732.732,0,0,0,1.465,0v-2.93a.732.732,0,0,0-1.465,0Zm0,0" transform="translate(-372.859 -86.557)"/>
          <path id="Path_79-5" data-name="Path 79" class="cls-4" d="M30.732,65.395a.732.732,0,0,0,.732-.732v-2.93a.732.732,0,1,0-1.465,0v2.93A.732.732,0,0,0,30.732,65.395Zm0,0" transform="translate(-28.535 -58.021)"/>
          <path id="Path_80-5" data-name="Path 80" class="cls-4" d="M452,183.2a.732.732,0,0,0,1.465,0v-1.465a.732.732,0,0,0-1.465,0Zm0,0" transform="translate(-429.93 -172.162)"/>
          <path id="Path_81-5" data-name="Path 81" class="cls-4" d="M452.732,65.395a.732.732,0,0,0,.732-.732v-2.93a.732.732,0,0,0-1.465,0v2.93A.732.732,0,0,0,452.732,65.395Zm0,0" transform="translate(-429.93 -58.021)"/>
          <path id="Path_82-5" data-name="Path 82" class="cls-4" d="M20.327,71.373a8.1,8.1,0,0,0-2.7-4.134V63.2a2.2,2.2,0,0,0-2.2-2.2H9.57a2.2,2.2,0,0,0-2.2,2.2v4.042a8.1,8.1,0,0,0-2.7,4.134A5.887,5.887,0,0,0,5.859,83.021H19.141a5.887,5.887,0,0,0,1.186-11.648ZM8.838,63.2a.733.733,0,0,1,.732-.732H15.43a.733.733,0,0,1,.732.732v.732H8.838Zm0,2.2h7.324V75.648H8.838Zm10.3,16.162H5.859a4.407,4.407,0,0,1-.506-8.783.732.732,0,0,0,.17-.041c.111-.008.223-.014.336-.014a.732.732,0,0,0,.354-1.373A6.539,6.539,0,0,1,7.373,69.3v6.353H6.641a.732.732,0,1,0,0,1.465H18.408a.732.732,0,1,0,0-1.465h-.781V69.3a6.539,6.539,0,0,1,1.16,2.049.732.732,0,0,0,.354,1.373c.113,0,.225.006.336.014a.732.732,0,0,0,.17.041,4.407,4.407,0,0,1-.506,8.783Zm0,0" transform="translate(0 -58.021)"/>
        </g>
      </g>
      <g id="_006-server-7" data-name="006-server" transform="translate(906 270)">
        <g id="Group_364-6" data-name="Group 364">
          <path id="Path_72-6" data-name="Path 72" class="cls-4" d="M213.2,181a2.2,2.2,0,1,0,2.2,2.2A2.2,2.2,0,0,0,213.2,181Zm0,2.93a.732.732,0,1,1,.732-.732A.733.733,0,0,1,213.2,183.93Zm0,0" transform="translate(-200.697 -172.162)"/>
          <path id="Path_73-6" data-name="Path 73" class="cls-4" d="M242.465,301.732a.732.732,0,1,1-.732-.732A.732.732,0,0,1,242.465,301.732Zm0,0" transform="translate(-229.233 -286.303)"/>
          <path id="Path_74-6" data-name="Path 74" class="cls-4" d="M90.732,2.979a.732.732,0,0,0,.732-.732V.732A.732.732,0,0,0,90,.732V2.246A.732.732,0,0,0,90.732,2.979Zm0,0" transform="translate(-85.606)"/>
          <path id="Path_75-6" data-name="Path 75" class="cls-4" d="M30,183.2a.732.732,0,1,0,1.465,0v-1.465a.732.732,0,1,0-1.465,0Zm0,0" transform="translate(-28.535 -172.162)"/>
          <path id="Path_76-6" data-name="Path 76" class="cls-4" d="M90,94.662a.732.732,0,0,0,1.465,0v-2.93a.732.732,0,0,0-1.465,0Zm0,0" transform="translate(-85.606 -86.557)"/>
          <path id="Path_77-6" data-name="Path 77" class="cls-4" d="M392.732,2.979a.732.732,0,0,0,.732-.732V.732a.732.732,0,0,0-1.465,0V2.246A.732.732,0,0,0,392.732,2.979Zm0,0" transform="translate(-372.859)"/>
          <path id="Path_78-6" data-name="Path 78" class="cls-4" d="M392,94.662a.732.732,0,0,0,1.465,0v-2.93a.732.732,0,0,0-1.465,0Zm0,0" transform="translate(-372.859 -86.557)"/>
          <path id="Path_79-6" data-name="Path 79" class="cls-4" d="M30.732,65.395a.732.732,0,0,0,.732-.732v-2.93a.732.732,0,1,0-1.465,0v2.93A.732.732,0,0,0,30.732,65.395Zm0,0" transform="translate(-28.535 -58.021)"/>
          <path id="Path_80-6" data-name="Path 80" class="cls-4" d="M452,183.2a.732.732,0,0,0,1.465,0v-1.465a.732.732,0,0,0-1.465,0Zm0,0" transform="translate(-429.93 -172.162)"/>
          <path id="Path_81-6" data-name="Path 81" class="cls-4" d="M452.732,65.395a.732.732,0,0,0,.732-.732v-2.93a.732.732,0,0,0-1.465,0v2.93A.732.732,0,0,0,452.732,65.395Zm0,0" transform="translate(-429.93 -58.021)"/>
          <path id="Path_82-6" data-name="Path 82" class="cls-4" d="M20.327,71.373a8.1,8.1,0,0,0-2.7-4.134V63.2a2.2,2.2,0,0,0-2.2-2.2H9.57a2.2,2.2,0,0,0-2.2,2.2v4.042a8.1,8.1,0,0,0-2.7,4.134A5.887,5.887,0,0,0,5.859,83.021H19.141a5.887,5.887,0,0,0,1.186-11.648ZM8.838,63.2a.733.733,0,0,1,.732-.732H15.43a.733.733,0,0,1,.732.732v.732H8.838Zm0,2.2h7.324V75.648H8.838Zm10.3,16.162H5.859a4.407,4.407,0,0,1-.506-8.783.732.732,0,0,0,.17-.041c.111-.008.223-.014.336-.014a.732.732,0,0,0,.354-1.373A6.539,6.539,0,0,1,7.373,69.3v6.353H6.641a.732.732,0,1,0,0,1.465H18.408a.732.732,0,1,0,0-1.465h-.781V69.3a6.539,6.539,0,0,1,1.16,2.049.732.732,0,0,0,.354,1.373c.113,0,.225.006.336.014a.732.732,0,0,0,.17.041,4.407,4.407,0,0,1-.506,8.783Zm0,0" transform="translate(0 -58.021)"/>
        </g>
      </g>
    </g>
    <g id="Repeat_Grid_3" data-name="Repeat Grid 3" class="cls-9" transform="translate(-18463.654 -13956.771)">
      <g transform="translate(18502.395 13918.395)">
        <path id="_039-sharing" data-name="039-sharing" class="cls-4" d="M22.8,10.3a2.2,2.2,0,0,0-2.071,1.465H19.051a6.56,6.56,0,0,0-1.4-3.38L18.8,7.232A2.2,2.2,0,1,0,17.768,6.2L16.612,7.352a6.56,6.56,0,0,0-3.38-1.4V4.269a2.2,2.2,0,1,0-1.465,0V5.949a6.56,6.56,0,0,0-3.38,1.4L7.232,6.2A2.195,2.195,0,1,0,6.2,7.232L7.352,8.388a6.56,6.56,0,0,0-1.4,3.38H4.269a2.2,2.2,0,1,0,0,1.465H5.949a6.56,6.56,0,0,0,1.4,3.38L6.2,17.768A2.2,2.2,0,1,0,7.232,18.8l1.156-1.156a6.557,6.557,0,0,0,3.38,1.4v1.681a2.2,2.2,0,1,0,1.465,0V19.051a6.557,6.557,0,0,0,3.38-1.4L17.768,18.8A2.2,2.2,0,1,0,18.8,17.768l-1.156-1.156a6.561,6.561,0,0,0,1.4-3.38h1.681A2.2,2.2,0,1,0,22.8,10.3Zm-3.57-5.571a.732.732,0,1,1,0,1.036A.732.732,0,0,1,19.233,4.732ZM5.767,5.767a.732.732,0,1,1,0-1.036A.733.733,0,0,1,5.767,5.767ZM2.2,13.232A.732.732,0,1,1,2.93,12.5.733.733,0,0,1,2.2,13.232Zm3.57,7.036a.732.732,0,1,1-1.036-1.036h0a.732.732,0,0,1,1.036,1.036ZM12.5,1.465a.732.732,0,1,1-.732.732A.733.733,0,0,1,12.5,1.465Zm0,22.07a.732.732,0,1,1,.732-.732A.733.733,0,0,1,12.5,23.535Zm2.2-6.4a5.121,5.121,0,0,1-4.395,0v-.237a2.2,2.2,0,0,1,4.395,0Zm-3.662-5.364A1.465,1.465,0,1,1,12.5,13.232,1.466,1.466,0,0,1,11.035,11.768Zm5.053,4.391a3.671,3.671,0,0,0-1.54-2.3,2.93,2.93,0,1,0-4.1,0,3.671,3.671,0,0,0-1.54,2.3,5.127,5.127,0,1,1,7.175,0Zm3.145,3.074a.732.732,0,1,1,0,1.036A.733.733,0,0,1,19.233,19.233Zm3.57-6a.732.732,0,1,1,.732-.732A.733.733,0,0,1,22.8,13.232Zm0,0" transform="translate(-18502.395 -13918.395)"/>
      </g>
      <g transform="translate(18952.395 13918.395)">
        <path id="_039-sharing-2" data-name="039-sharing" class="cls-4" d="M22.8,10.3a2.2,2.2,0,0,0-2.071,1.465H19.051a6.56,6.56,0,0,0-1.4-3.38L18.8,7.232A2.2,2.2,0,1,0,17.768,6.2L16.612,7.352a6.56,6.56,0,0,0-3.38-1.4V4.269a2.2,2.2,0,1,0-1.465,0V5.949a6.56,6.56,0,0,0-3.38,1.4L7.232,6.2A2.195,2.195,0,1,0,6.2,7.232L7.352,8.388a6.56,6.56,0,0,0-1.4,3.38H4.269a2.2,2.2,0,1,0,0,1.465H5.949a6.56,6.56,0,0,0,1.4,3.38L6.2,17.768A2.2,2.2,0,1,0,7.232,18.8l1.156-1.156a6.557,6.557,0,0,0,3.38,1.4v1.681a2.2,2.2,0,1,0,1.465,0V19.051a6.557,6.557,0,0,0,3.38-1.4L17.768,18.8A2.2,2.2,0,1,0,18.8,17.768l-1.156-1.156a6.561,6.561,0,0,0,1.4-3.38h1.681A2.2,2.2,0,1,0,22.8,10.3Zm-3.57-5.571a.732.732,0,1,1,0,1.036A.732.732,0,0,1,19.233,4.732ZM5.767,5.767a.732.732,0,1,1,0-1.036A.733.733,0,0,1,5.767,5.767ZM2.2,13.232A.732.732,0,1,1,2.93,12.5.733.733,0,0,1,2.2,13.232Zm3.57,7.036a.732.732,0,1,1-1.036-1.036h0a.732.732,0,0,1,1.036,1.036ZM12.5,1.465a.732.732,0,1,1-.732.732A.733.733,0,0,1,12.5,1.465Zm0,22.07a.732.732,0,1,1,.732-.732A.733.733,0,0,1,12.5,23.535Zm2.2-6.4a5.121,5.121,0,0,1-4.395,0v-.237a2.2,2.2,0,0,1,4.395,0Zm-3.662-5.364A1.465,1.465,0,1,1,12.5,13.232,1.466,1.466,0,0,1,11.035,11.768Zm5.053,4.391a3.671,3.671,0,0,0-1.54-2.3,2.93,2.93,0,1,0-4.1,0,3.671,3.671,0,0,0-1.54,2.3,5.127,5.127,0,1,1,7.175,0Zm3.145,3.074a.732.732,0,1,1,0,1.036A.733.733,0,0,1,19.233,19.233Zm3.57-6a.732.732,0,1,1,.732-.732A.733.733,0,0,1,22.8,13.232Zm0,0" transform="translate(-18502.395 -13918.395)"/>
      </g>
      <g transform="translate(19402.395 13918.395)">
        <path id="_039-sharing-3" data-name="039-sharing" class="cls-4" d="M22.8,10.3a2.2,2.2,0,0,0-2.071,1.465H19.051a6.56,6.56,0,0,0-1.4-3.38L18.8,7.232A2.2,2.2,0,1,0,17.768,6.2L16.612,7.352a6.56,6.56,0,0,0-3.38-1.4V4.269a2.2,2.2,0,1,0-1.465,0V5.949a6.56,6.56,0,0,0-3.38,1.4L7.232,6.2A2.195,2.195,0,1,0,6.2,7.232L7.352,8.388a6.56,6.56,0,0,0-1.4,3.38H4.269a2.2,2.2,0,1,0,0,1.465H5.949a6.56,6.56,0,0,0,1.4,3.38L6.2,17.768A2.2,2.2,0,1,0,7.232,18.8l1.156-1.156a6.557,6.557,0,0,0,3.38,1.4v1.681a2.2,2.2,0,1,0,1.465,0V19.051a6.557,6.557,0,0,0,3.38-1.4L17.768,18.8A2.2,2.2,0,1,0,18.8,17.768l-1.156-1.156a6.561,6.561,0,0,0,1.4-3.38h1.681A2.2,2.2,0,1,0,22.8,10.3Zm-3.57-5.571a.732.732,0,1,1,0,1.036A.732.732,0,0,1,19.233,4.732ZM5.767,5.767a.732.732,0,1,1,0-1.036A.733.733,0,0,1,5.767,5.767ZM2.2,13.232A.732.732,0,1,1,2.93,12.5.733.733,0,0,1,2.2,13.232Zm3.57,7.036a.732.732,0,1,1-1.036-1.036h0a.732.732,0,0,1,1.036,1.036ZM12.5,1.465a.732.732,0,1,1-.732.732A.733.733,0,0,1,12.5,1.465Zm0,22.07a.732.732,0,1,1,.732-.732A.733.733,0,0,1,12.5,23.535Zm2.2-6.4a5.121,5.121,0,0,1-4.395,0v-.237a2.2,2.2,0,0,1,4.395,0Zm-3.662-5.364A1.465,1.465,0,1,1,12.5,13.232,1.466,1.466,0,0,1,11.035,11.768Zm5.053,4.391a3.671,3.671,0,0,0-1.54-2.3,2.93,2.93,0,1,0-4.1,0,3.671,3.671,0,0,0-1.54,2.3,5.127,5.127,0,1,1,7.175,0Zm3.145,3.074a.732.732,0,1,1,0,1.036A.733.733,0,0,1,19.233,19.233Zm3.57-6a.732.732,0,1,1,.732-.732A.733.733,0,0,1,22.8,13.232Zm0,0" transform="translate(-18502.395 -13918.395)"/>
      </g>
      <g transform="translate(18502.395 14188.395)">
        <path id="_039-sharing-4" data-name="039-sharing" class="cls-4" d="M22.8,10.3a2.2,2.2,0,0,0-2.071,1.465H19.051a6.56,6.56,0,0,0-1.4-3.38L18.8,7.232A2.2,2.2,0,1,0,17.768,6.2L16.612,7.352a6.56,6.56,0,0,0-3.38-1.4V4.269a2.2,2.2,0,1,0-1.465,0V5.949a6.56,6.56,0,0,0-3.38,1.4L7.232,6.2A2.195,2.195,0,1,0,6.2,7.232L7.352,8.388a6.56,6.56,0,0,0-1.4,3.38H4.269a2.2,2.2,0,1,0,0,1.465H5.949a6.56,6.56,0,0,0,1.4,3.38L6.2,17.768A2.2,2.2,0,1,0,7.232,18.8l1.156-1.156a6.557,6.557,0,0,0,3.38,1.4v1.681a2.2,2.2,0,1,0,1.465,0V19.051a6.557,6.557,0,0,0,3.38-1.4L17.768,18.8A2.2,2.2,0,1,0,18.8,17.768l-1.156-1.156a6.561,6.561,0,0,0,1.4-3.38h1.681A2.2,2.2,0,1,0,22.8,10.3Zm-3.57-5.571a.732.732,0,1,1,0,1.036A.732.732,0,0,1,19.233,4.732ZM5.767,5.767a.732.732,0,1,1,0-1.036A.733.733,0,0,1,5.767,5.767ZM2.2,13.232A.732.732,0,1,1,2.93,12.5.733.733,0,0,1,2.2,13.232Zm3.57,7.036a.732.732,0,1,1-1.036-1.036h0a.732.732,0,0,1,1.036,1.036ZM12.5,1.465a.732.732,0,1,1-.732.732A.733.733,0,0,1,12.5,1.465Zm0,22.07a.732.732,0,1,1,.732-.732A.733.733,0,0,1,12.5,23.535Zm2.2-6.4a5.121,5.121,0,0,1-4.395,0v-.237a2.2,2.2,0,0,1,4.395,0Zm-3.662-5.364A1.465,1.465,0,1,1,12.5,13.232,1.466,1.466,0,0,1,11.035,11.768Zm5.053,4.391a3.671,3.671,0,0,0-1.54-2.3,2.93,2.93,0,1,0-4.1,0,3.671,3.671,0,0,0-1.54,2.3,5.127,5.127,0,1,1,7.175,0Zm3.145,3.074a.732.732,0,1,1,0,1.036A.733.733,0,0,1,19.233,19.233Zm3.57-6a.732.732,0,1,1,.732-.732A.733.733,0,0,1,22.8,13.232Zm0,0" transform="translate(-18502.395 -13918.395)"/>
      </g>
      <g transform="translate(18952.395 14188.395)">
        <path id="_039-sharing-5" data-name="039-sharing" class="cls-4" d="M22.8,10.3a2.2,2.2,0,0,0-2.071,1.465H19.051a6.56,6.56,0,0,0-1.4-3.38L18.8,7.232A2.2,2.2,0,1,0,17.768,6.2L16.612,7.352a6.56,6.56,0,0,0-3.38-1.4V4.269a2.2,2.2,0,1,0-1.465,0V5.949a6.56,6.56,0,0,0-3.38,1.4L7.232,6.2A2.195,2.195,0,1,0,6.2,7.232L7.352,8.388a6.56,6.56,0,0,0-1.4,3.38H4.269a2.2,2.2,0,1,0,0,1.465H5.949a6.56,6.56,0,0,0,1.4,3.38L6.2,17.768A2.2,2.2,0,1,0,7.232,18.8l1.156-1.156a6.557,6.557,0,0,0,3.38,1.4v1.681a2.2,2.2,0,1,0,1.465,0V19.051a6.557,6.557,0,0,0,3.38-1.4L17.768,18.8A2.2,2.2,0,1,0,18.8,17.768l-1.156-1.156a6.561,6.561,0,0,0,1.4-3.38h1.681A2.2,2.2,0,1,0,22.8,10.3Zm-3.57-5.571a.732.732,0,1,1,0,1.036A.732.732,0,0,1,19.233,4.732ZM5.767,5.767a.732.732,0,1,1,0-1.036A.733.733,0,0,1,5.767,5.767ZM2.2,13.232A.732.732,0,1,1,2.93,12.5.733.733,0,0,1,2.2,13.232Zm3.57,7.036a.732.732,0,1,1-1.036-1.036h0a.732.732,0,0,1,1.036,1.036ZM12.5,1.465a.732.732,0,1,1-.732.732A.733.733,0,0,1,12.5,1.465Zm0,22.07a.732.732,0,1,1,.732-.732A.733.733,0,0,1,12.5,23.535Zm2.2-6.4a5.121,5.121,0,0,1-4.395,0v-.237a2.2,2.2,0,0,1,4.395,0Zm-3.662-5.364A1.465,1.465,0,1,1,12.5,13.232,1.466,1.466,0,0,1,11.035,11.768Zm5.053,4.391a3.671,3.671,0,0,0-1.54-2.3,2.93,2.93,0,1,0-4.1,0,3.671,3.671,0,0,0-1.54,2.3,5.127,5.127,0,1,1,7.175,0Zm3.145,3.074a.732.732,0,1,1,0,1.036A.733.733,0,0,1,19.233,19.233Zm3.57-6a.732.732,0,1,1,.732-.732A.733.733,0,0,1,22.8,13.232Zm0,0" transform="translate(-18502.395 -13918.395)"/>
      </g>
      <g transform="translate(19402.395 14188.395)">
        <path id="_039-sharing-6" data-name="039-sharing" class="cls-4" d="M22.8,10.3a2.2,2.2,0,0,0-2.071,1.465H19.051a6.56,6.56,0,0,0-1.4-3.38L18.8,7.232A2.2,2.2,0,1,0,17.768,6.2L16.612,7.352a6.56,6.56,0,0,0-3.38-1.4V4.269a2.2,2.2,0,1,0-1.465,0V5.949a6.56,6.56,0,0,0-3.38,1.4L7.232,6.2A2.195,2.195,0,1,0,6.2,7.232L7.352,8.388a6.56,6.56,0,0,0-1.4,3.38H4.269a2.2,2.2,0,1,0,0,1.465H5.949a6.56,6.56,0,0,0,1.4,3.38L6.2,17.768A2.2,2.2,0,1,0,7.232,18.8l1.156-1.156a6.557,6.557,0,0,0,3.38,1.4v1.681a2.2,2.2,0,1,0,1.465,0V19.051a6.557,6.557,0,0,0,3.38-1.4L17.768,18.8A2.2,2.2,0,1,0,18.8,17.768l-1.156-1.156a6.561,6.561,0,0,0,1.4-3.38h1.681A2.2,2.2,0,1,0,22.8,10.3Zm-3.57-5.571a.732.732,0,1,1,0,1.036A.732.732,0,0,1,19.233,4.732ZM5.767,5.767a.732.732,0,1,1,0-1.036A.733.733,0,0,1,5.767,5.767ZM2.2,13.232A.732.732,0,1,1,2.93,12.5.733.733,0,0,1,2.2,13.232Zm3.57,7.036a.732.732,0,1,1-1.036-1.036h0a.732.732,0,0,1,1.036,1.036ZM12.5,1.465a.732.732,0,1,1-.732.732A.733.733,0,0,1,12.5,1.465Zm0,22.07a.732.732,0,1,1,.732-.732A.733.733,0,0,1,12.5,23.535Zm2.2-6.4a5.121,5.121,0,0,1-4.395,0v-.237a2.2,2.2,0,0,1,4.395,0Zm-3.662-5.364A1.465,1.465,0,1,1,12.5,13.232,1.466,1.466,0,0,1,11.035,11.768Zm5.053,4.391a3.671,3.671,0,0,0-1.54-2.3,2.93,2.93,0,1,0-4.1,0,3.671,3.671,0,0,0-1.54,2.3,5.127,5.127,0,1,1,7.175,0Zm3.145,3.074a.732.732,0,1,1,0,1.036A.733.733,0,0,1,19.233,19.233Zm3.57-6a.732.732,0,1,1,.732-.732A.733.733,0,0,1,22.8,13.232Zm0,0" transform="translate(-18502.395 -13918.395)"/>
      </g>
    </g>
  </g>
</svg>
