<svg xmlns="http://www.w3.org/2000/svg" width="32" height="32"><rect id="backgroundrect" width="100%" height="100%" x="0" y="0" fill="none" stroke="none"/>
  <defs>
    <style>
      .cls-1 {
      fill: #36cfc9;
      }

      .cls-2 {
      fill: #006d75;
      font-size: 20px;
      font-family: Poppins-Medium, Poppins;
      font-weight: 500;
      }
    </style>
  </defs>

  <g class="currentLayer" style=""><title>Layer 1</title><g id="Group_376" data-name="Group 376" class="">
    <path id="Path_8" data-name="Path 8" class="cls-1" d="M28.51307651710768,9.27014363600329e-7 H16.2158354115488 l0.027910215854644795,0.06741210365295414 C9.730896757725985,2.4859942188701827 5.96999517130793,10.304422485394191 8.311662281512465,16.47882087711696 a12.371203177571298,12.196087732315064 0 0 0 15.917196101903917,7.107161785125733 l1.272705842971802,3.327956708908081 A15.967434490442276,15.741414081573486 0 0 1 4.9317351415168496,17.729384187742152 A16.885680592060087,16.64666233062744 0 0 1 9.64437508857419,9.27014363600329e-7 H3.4217924637826393 A3.4259789961576463,3.377483968734741 0 0 0 1.6059790698184092e-12,3.373357624095942 V28.105345121426712 a3.4259789961576463,3.377483968734741 0 0 0 3.4217924637794495,3.377483968734741 H28.51307651710768 a3.4259789961576463,3.377483968734741 0 0 0 3.4217924637794495,-3.377483968734741 V3.373357624095942 A3.4259789961576463,3.377483968734741 0 0 0 28.51307651710768,9.27014363600329e-7 zM16.757293599132602,4.310248289150945 a1.4973830806016921,1.476187494277954 0 1 1 -1.4973830806016921,1.476187494277954 A1.4973830806016921,1.476187494277954 0 0 1 16.757293599132602,4.310248289150945 zM11.665074716450919,15.845972557110839 l8.201416928887367,-5.205865310668945 l1.2810789077281952,2.942744688034058 z"/>
    <text id="kandula" class="cls-2" y="18.205078601837158" x="30.328125000000437" transform="matrix(1.3955107927322388,0,0,1.3757572174072266,9.959150100760135e-13,2.7100220167442825e-7) "><tspan x="30.328125000000437" y="18.205078601837158" id="svg_1">kandula</tspan></text>
  </g></g></svg>
